<svg id="Capa_1" enable-background="new 0 0 512 512" height="512" viewBox="0 0 512 512" width="512" xmlns="http://www.w3.org/2000/svg"><g><path d="m491.2 296.295c0-13.093 0-268.145 0-281.286 0-8.284-6.716-15-15-15h-440.4c-8.284 0-15 6.716-15 15v281.286c-11.791 2.003-20.8 12.286-20.8 24.64v45.356c0 13.785 11.215 25 25 25h55.692l-34.373 100.86c-3.325 9.761 3.967 19.84 14.2 19.84h64.96c6.42 0 12.12-4.09 14.2-10.16l37.673-110.539h157.295l37.673 110.539c2.08 6.07 7.78 10.16 14.2 10.16h64.96c10.231 0 17.526-10.076 14.2-19.84l-34.373-100.859h55.692c13.785 0 25-11.215 25-25v-45.356c.001-12.354-9.008-22.637-20.799-24.641zm-440.4-266.286h410.4v195.5h-123.2c-13.785 0-25 11.215-25 25v45.426h-262.2zm410.4 225.5v40.426h-118.2v-40.426zm-346.461 226.482h-33.26l30.913-90.699h33.26zm282.522 0-30.913-90.699h33.26l30.913 90.699zm84.739-120.7c-12.609 0-439.359 0-452 0v-35.356h452z"/><path d="m109.95 111.295h292.1c8.284 0 15-6.716 15-15s-6.716-15-15-15h-292.1c-8.284 0-15 6.716-15 15s6.716 15 15 15z"/><path d="m288.95 164.009h-179c-8.284 0-15 6.716-15 15s6.716 15 15 15h179c8.284 0 15-6.716 15-15s-6.716-15-15-15z"/></g></svg>